<svg width="261" height="64" viewBox="0 0 261 64" fill="none" xmlns="http://www.w3.org/2000/svg">
<path d="M70.3232 28.6232L68.85 30.0964V24.1V23.85H68.6H68.2H67.95V24.1V35.5V35.75H68.2H68.6H68.85V35.5V31.3078L70.3853 29.8577L75.514 35.5671L75.5885 35.65H75.7H76.3H76.8501L76.4883 35.2356L71.142 29.1116L76.0768 24.1768L76.5036 23.75H75.9H75.3H75.1964L75.1232 23.8232L70.3232 28.6232Z" fill="white" stroke="white" stroke-width="0.5"/>
<path d="M91.3236 33.4118L91.3269 33.4052L91.3298 33.3985C91.6438 32.6658 91.85 31.7321 91.85 30.7V29C91.85 27.9625 91.6416 27.1323 91.3341 26.3122C91.0149 25.4611 90.4778 24.8137 89.724 24.3829C88.9866 23.9615 88.2439 23.75 87.3 23.75C86.3561 23.75 85.6134 23.9615 84.876 24.3829L84.8685 24.3872L84.8613 24.392C84.2174 24.8213 83.6912 25.4585 83.2764 26.2882L83.2731 26.2948L83.2702 26.3015C82.9562 27.0342 82.75 27.9679 82.75 29V30.6C82.75 32.1408 83.1607 33.5071 84.0131 34.4661C84.8577 35.4162 85.9243 35.95 87.3 35.95C88.2439 35.95 88.9866 35.7385 89.724 35.3171L89.7315 35.3128L89.7387 35.308C90.3826 34.8787 90.9088 34.2415 91.3236 33.4118ZM89.8119 25.7646C90.4242 26.4644 90.8008 27.4203 90.8455 28.65H90.75V28.9V30.5C90.75 31.8727 90.4545 33.0009 89.8119 33.7354L89.8071 33.7408L89.8027 33.7465C89.1554 34.5787 88.332 34.95 87.2 34.95C86.4437 34.95 85.7932 34.7617 85.2387 34.392C84.6662 34.0103 84.2054 33.5446 83.9298 32.9015C83.6413 32.2285 83.45 31.4619 83.45 30.6V28.9C83.45 27.5439 83.8378 26.4079 84.4881 25.6646C85.1365 24.9237 85.9654 24.55 87.1 24.55C88.2256 24.55 89.1578 25.0171 89.8119 25.7646Z" fill="white" stroke="white" stroke-width="0.5"/>
<path d="M107.7 35.75H107.95V35.5V24.1V23.85H107.7H107.3H107.05V24.1V33.999L100.106 23.9578L100.031 23.85H99.9H99.5H99.25V24.1V35.5V35.75H99.5H99.9H100.15V35.5V25.601L107.094 35.6422L107.169 35.75H107.3H107.7Z" fill="white" stroke="white" stroke-width="0.5"/>
<path d="M123.214 25.4714L123.206 25.457L123.195 25.4438C122.784 24.9294 122.357 24.4989 121.712 24.1764C121.064 23.8523 120.32 23.75 119.6 23.75C118.453 23.75 117.501 24.0636 116.755 24.5966C115.999 25.1363 115.55 25.9077 115.55 26.8C115.55 27.3386 115.659 27.7769 115.876 28.2118C116.111 28.6819 116.569 29.0132 117.071 29.3144C117.57 29.6133 118.246 29.8158 119.134 30.0814C119.198 30.1004 119.262 30.1197 119.328 30.1395C119.381 30.1552 119.432 30.1706 119.483 30.1858C120.412 30.4642 121.029 30.6491 121.471 30.9144C121.97 31.2135 122.326 31.4894 122.492 31.7387C122.656 31.9846 122.75 32.3309 122.75 32.8C122.75 33.3659 122.536 33.8581 122.271 34.4688C122.247 34.5235 122.223 34.5792 122.198 34.6359C121.566 35.0689 120.836 35.25 119.9 35.25C118.847 35.25 117.999 34.9636 117.345 34.4966C116.715 34.046 116.35 33.3237 116.35 32.5V32.25H116.1H115.7H115.45V32.5C115.45 33.2499 115.665 33.8939 115.986 34.4286C116.324 34.9932 116.98 35.4197 117.588 35.7236C118.24 36.0497 119.087 36.15 119.9 36.15C120.643 36.15 121.375 35.9384 121.979 35.7372C122.631 35.5199 123.172 35.0877 123.5 34.65C123.829 34.211 124.05 33.6592 124.05 33C124.05 32.026 123.617 31.1502 122.851 30.6005C122.308 30.1682 121.368 29.759 120.056 29.4564C118.782 29.1623 117.927 28.7769 117.467 28.4133C117 27.9443 116.75 27.506 116.75 26.9C116.75 26.2796 117.011 25.7595 117.539 25.408L117.55 25.4006L117.56 25.3921C118.097 24.9444 118.83 24.75 119.8 24.75C120.747 24.75 121.489 25.0331 122.04 25.4921C122.574 25.937 122.85 26.5616 122.85 27.4V27.65H123.1H123.5H123.75V27.4C123.75 26.6501 123.535 26.0061 123.214 25.4714Z" fill="white" stroke="white" stroke-width="0.5"/>
<path d="M138.6 24.75H138.85V24.5V24.1V23.85H138.6H129.8H129.55V24.1V24.5V24.75H129.8H133.75V35.5V35.75H134H134.4H134.65V35.5V24.75H138.6Z" fill="white" stroke="white" stroke-width="0.5"/>
<path d="M152 30.15H152.25V29.9V29.4V29.15H152H146.55V24.75H152.9H153.15V24.5V24.1V23.85H152.9H145.9H145.65V24.1V35.6V35.85H145.9H152.9H153.15V35.6V35.2V34.95H152.9H146.55V30.15H152Z" fill="white" stroke="white" stroke-width="0.5"/>
<path d="M166.95 35.1V34.85H166.7H161.05V24.1V23.85H160.8H160.4H160.15V24.1V35.5V35.75H160.4H166.7H166.95V35.5V35.1Z" fill="white" stroke="white" stroke-width="0.5"/>
<path d="M180.55 35.1V34.85H180.3H174.65V24.1V23.85H174.4H174H173.75V24.1V35.5V35.75H174H180.3H180.55V35.5V35.1Z" fill="white" stroke="white" stroke-width="0.5"/>
<path d="M190.996 25.315L193.242 31.45H188.663L190.996 25.315ZM186.8 35.75H186.972L187.034 35.5893L188.272 32.35H193.528L194.766 35.5893L194.828 35.75H195H195.4H195.76L195.634 35.4124L191.334 23.9124L191.273 23.75H191.1H190.6H190.427L190.366 23.9124L186.066 35.4124L185.94 35.75H186.3H186.8Z" fill="white" stroke="white" stroke-width="0.5"/>
<path d="M209.2 24.75H209.45V24.5V24.1V23.85H209.2H200.4H200.15V24.1V24.5V24.75H200.4H204.35V35.5V35.75H204.6H205H205.25V35.5V24.75H209.2Z" fill="white" stroke="white" stroke-width="0.5"/>
<path d="M217.2 35.75H217.45V35.5V24.1V23.85H217.2H216.8H216.55V24.1V35.5V35.75H216.8H217.2Z" fill="white" stroke="white" stroke-width="0.5"/>
<path d="M233.824 33.4118L233.827 33.4052L233.83 33.3985C234.144 32.6658 234.35 31.7321 234.35 30.7V29C234.35 27.9878 234.25 27.1461 233.829 26.2999C233.51 25.4549 232.974 24.8116 232.224 24.3829C231.487 23.9615 230.744 23.75 229.8 23.75C228.856 23.75 228.113 23.9615 227.376 24.3829L227.368 24.3872L227.361 24.392C226.717 24.8213 226.191 25.4585 225.776 26.2882L225.773 26.2948L225.77 26.3015C225.456 27.0342 225.25 27.9679 225.25 29V30.6C225.25 32.1408 225.661 33.5071 226.513 34.4661C227.358 35.4162 228.424 35.95 229.8 35.95C230.744 35.95 231.487 35.7385 232.224 35.3171L232.232 35.3128L232.239 35.308C232.883 34.8787 233.409 34.2415 233.824 33.4118ZM233.446 28.65H233.35V28.9V30.5C233.35 31.863 233.059 32.9031 232.403 33.7465C231.755 34.5787 230.932 34.95 229.8 34.95C229.044 34.95 228.393 34.7617 227.839 34.392C227.266 34.0103 226.805 33.5446 226.53 32.9015C226.241 32.2285 226.05 31.4619 226.05 30.6V28.9C226.05 27.5439 226.438 26.4079 227.088 25.6646C227.736 24.9237 228.565 24.55 229.7 24.55C230.826 24.55 231.758 25.0171 232.412 25.7646C233.024 26.4644 233.401 27.4203 233.446 28.65Z" fill="white" stroke="white" stroke-width="0.5"/>
<path d="M250.2 35.75H250.45V35.5V24.1V23.85H250.2H249.8H249.55V24.1V33.999L242.606 23.9578L242.531 23.85H242.4H242H241.75V24.1V35.5V35.75H242H242.4H242.65V35.5V25.601L249.594 35.6422L249.669 35.75H249.8H250.2Z" fill="white" stroke="white" stroke-width="0.5"/>
<path d="M38.6 13.3C38.5 13.5 38.4 13.6 38.2 13.7C38.1 13.8 38 13.8 38 13.9C37.9 14 37.8 14.1 37.7 14.2C37.6 14.3 37.4 14.4 37.3 14.6C37.2 14.7 37.2 14.9 37.1 15C43 18.3 47.1 24.6 47.1 31.9C47.1 42.5 38.4 51.2 27.8 51.2C17.2 51.2 8.5 42.4 8.5 31.8C8.5 21.2 17.2 12.5 27.8 12.5C30.4 12.5 32.9 13 35.2 14C35.2 13.9 35.3 13.9 35.3 13.8C35.4 13.7 35.4 13.7 35.5 13.6C35.5 13.5 35.6 13.5 35.6 13.4C36 13 36.3 12.6 36.7 12.3C34 11 30.9 10.3 27.7 10.3C16 10.4 6.4 20 6.4 31.8C6.4 43.6 16 53.2 27.8 53.2C39.6 53.2 49.2 43.6 49.2 31.8C49.2 23.9 45 17 38.6 13.3Z" fill="white"/>
<path d="M46.7 8.29999L45.2 6.79999L38.5 13.5L38.4 13.6L37.1 14.9L37 15C37 15.1 36.9 15.1 36.9 15.1L19.8 32.2L44.1 56.5L45.6 55L22.8 32.2L46.7 8.29999Z" fill="white"/>
<path d="M22 19H19.9V43.9H22V19Z" fill="white"/>
<path d="M21 21.7C22.1598 21.7 23.1 20.7598 23.1 19.6C23.1 18.4402 22.1598 17.5 21 17.5C19.8402 17.5 18.9 18.4402 18.9 19.6C18.9 20.7598 19.8402 21.7 21 21.7Z" fill="white"/>
<path d="M21 46C22.1598 46 23.1 45.0598 23.1 43.9C23.1 42.7402 22.1598 41.8 21 41.8C19.8402 41.8 18.9 42.7402 18.9 43.9C18.9 45.0598 19.8402 46 21 46Z" fill="white"/>
<path d="M21 33.9C22.1598 33.9 23.1 32.9598 23.1 31.8C23.1 30.6402 22.1598 29.7 21 29.7C19.8402 29.7 18.9 30.6402 18.9 31.8C18.9 32.9598 19.8402 33.9 21 33.9Z" fill="white"/>
<path d="M45.2 58.1C46.3598 58.1 47.3 57.1598 47.3 56C47.3 54.8402 46.3598 53.9 45.2 53.9C44.0402 53.9 43.1 54.8402 43.1 56C43.1 57.1598 44.0402 58.1 45.2 58.1Z" fill="white"/>
<path d="M43.6 21.7C44.7598 21.7 45.7 20.7598 45.7 19.6C45.7 18.4402 44.7598 17.5 43.6 17.5C42.4402 17.5 41.5 18.4402 41.5 19.6C41.5 20.7598 42.4402 21.7 43.6 21.7Z" fill="white"/>
<path d="M46 9.59999C47.1598 9.59999 48.1 8.65979 48.1 7.49999C48.1 6.3402 47.1598 5.39999 46 5.39999C44.8402 5.39999 43.9 6.3402 43.9 7.49999C43.9 8.65979 44.8402 9.59999 46 9.59999Z" fill="white"/>
<path d="M27.2 20.5C28.0284 20.5 28.7 19.8284 28.7 19C28.7 18.1716 28.0284 17.5 27.2 17.5C26.3716 17.5 25.7 18.1716 25.7 19C25.7 19.8284 26.3716 20.5 27.2 20.5Z" fill="white"/>
<path d="M37.9 41.7C39.3912 41.7 40.6 40.4912 40.6 39C40.6 37.5088 39.3912 36.3 37.9 36.3C36.4088 36.3 35.2 37.5088 35.2 39C35.2 40.4912 36.4088 41.7 37.9 41.7Z" fill="white"/>
</svg>